<svg width="294" height="18" viewBox="0 0 294 18" fill="#000" xmlns="http://www.w3.org/2000/svg">
<g clip-path="url(#clip0)">
<path d="M151.594 0.452881H157.781C162.25 0.452881 167.292 2.60382 167.292 9.05665C167.292 15.0567 162.25 17.6604 157.781 17.6604H151.594V0.452881ZM157.323 14.8302C160.531 14.8302 164.083 13.585 164.083 8.94345C164.083 4.07552 160.531 2.94345 157.323 2.94345H154.687V14.8302H157.323Z" fill="#000"/>
<path d="M174.396 0.452881H171.302V17.5472H174.396V0.452881Z" fill="#000"/>
<path d="M184.594 0.452881H187.229L194.677 17.5472H191.125L189.521 13.585H181.958L180.354 17.5472H176.917L184.594 0.452881ZM188.49 10.9812L185.854 4.07552L183.104 10.9812H188.49Z" fill="#000"/>
<path d="M197.427 0.452881H202.24L206.708 12.5661H206.823L211.292 0.452881H216.104V17.5472H213.125V3.84911H213.01L207.74 17.5472H205.562L200.406 3.84911V17.5472H197.427V0.452881Z" fill="#000"/>
<path d="M229.396 0C234.781 0 238.792 3.50943 238.792 8.9434C238.792 14.2642 234.896 18 229.396 18C224.01 18 220.115 14.2642 220.115 8.9434C220.115 3.50943 224.01 0 229.396 0ZM229.396 15.283C232.948 15.283 235.354 12.6792 235.354 8.9434C235.354 5.43396 232.948 2.71698 229.396 2.71698C225.844 2.71698 223.437 5.43396 223.437 8.9434C223.437 12.566 225.844 15.283 229.396 15.283Z" fill="#000"/>
<path d="M242.688 0.452881H246.812L254.833 13.2453V0.452881H257.927V17.5472H254.031L245.781 4.30194V17.5472H242.688V0.452881Z" fill="#000"/>
<path d="M262.74 0.452881H268.927C273.396 0.452881 278.437 2.60382 278.437 9.05665C278.437 15.0567 273.396 17.6604 268.927 17.6604H262.74V0.452881ZM268.354 14.8302C271.562 14.8302 275.115 13.585 275.115 8.94345C275.115 4.07552 271.562 2.94345 268.354 2.94345H265.833V14.8302H268.354Z" fill="#000"/>
<path d="M291.271 3.96226C290.583 3.16981 289.323 2.49057 288.063 2.49057C286.688 2.49057 284.969 3.16981 284.969 4.86793C284.969 6.45283 286.344 6.90566 288.292 7.4717C290.469 8.15094 293.333 9.16981 293.333 12.4528C293.333 16.0755 290.469 17.8868 287.031 17.8868C284.74 17.8868 282.448 17.0943 281.073 15.3962L283.25 13.3585C284.052 14.4906 285.656 15.283 287.031 15.283C288.521 15.283 290.125 14.6038 290.125 12.7925C290.125 10.9811 288.292 10.5283 286.115 9.84906C284.167 9.28302 281.875 8.26415 281.875 4.98113C281.875 1.4717 285.083 0 288.177 0C289.896 0 291.844 0.566038 293.219 1.81132L291.271 3.96226Z" fill="#000"/>
<path d="M6.76042 0.452782L0 17.5471H3.32292L11.3438 15.1698V14.9433H4.35417L8.70833 3.7358L14.0938 17.6603H17.4167L10.6563 0.452782H6.76042ZM25.5521 0.452782H22.4583V17.6603H34.6042V15.0566H25.5521V0.452782ZM52.4792 5.54712C52.4792 2.60373 50.4167 0.452782 46.8646 0.452782H39.3021V17.5471H42.3958V10.7547H45.8333L48.8125 17.6603H52.3646L48.9271 10.5283C51.1042 9.7358 52.4792 7.92448 52.4792 5.54712ZM46.4062 8.03769H42.2813V3.05656H46.4062C48.125 3.05656 49.3854 3.84901 49.3854 5.54712C49.3854 7.24524 48.125 8.03769 46.4062 8.03769ZM66.4583 0.113159C61.4167 0.113159 57.6354 3.50939 57.6354 8.94335C57.6354 14.1509 61.4167 17.8867 66.4583 17.8867C71.6146 17.8867 75.3958 14.2641 75.3958 8.94335C75.2813 3.50939 71.6146 0.113159 66.4583 0.113159ZM66.4583 15.1698C63.1354 15.1698 60.8438 12.566 60.8438 8.94335C60.8438 5.43392 63.1354 2.71693 66.4583 2.71693C69.8958 2.71693 72.1875 5.43392 72.1875 8.94335C72.0729 12.566 69.7812 15.1698 66.4583 15.1698ZM137.5 0.452782H123.979L120.771 5.99995L127.531 17.5471H134.062L140.823 5.99995L137.5 0.452782ZM127.646 17.3207L124.094 0.679197L140.365 5.99995L127.646 17.3207ZM101.521 0.452782L94.7604 17.5471H98.0833L103.469 3.62259L107.823 14.8301H100.833V15.0566L108.854 17.4339H112.177L105.302 0.452782H101.521ZM86.5104 7.58486C84.5625 7.01882 83.3021 6.56599 83.3021 4.98108C83.3021 3.28297 84.9063 2.71693 86.2813 2.71693C87.5417 2.71693 88.8021 3.28297 89.375 4.18863L91.3229 2.03769C90.0625 0.792404 88.1146 0.226367 86.3958 0.226367C83.3021 0.226367 80.2083 1.69807 80.2083 5.2075C80.2083 8.37731 82.5 9.39618 84.5625 9.96222C86.7396 10.6415 88.4583 11.0943 88.4583 12.9056C88.4583 14.7169 86.7396 15.3962 85.3646 15.3962C83.9896 15.3962 82.5 14.7169 81.5833 13.5849L79.4063 15.6226C80.7813 17.2075 83.0729 18 85.25 18C88.5729 18 91.4375 16.1886 91.4375 12.566C91.5521 9.16976 88.6875 8.2641 86.5104 7.58486Z" fill="#000"/>
</g>
<defs>
<clipPath id="clip0">
<rect width="293.333" height="18" fill="white"/>
</clipPath>
</defs>
</svg>
