<svg width="142" height="49" viewBox="0 0 142 49" fill="none" xmlns="http://www.w3.org/2000/svg">
<path d="M37.3749 43.2067H39.4883C41.0247 43.2067 42.2523 44.4304 42.2523 46.0624C42.2523 47.6943 41.0247 48.9184 39.4883 48.9184H37.3749V43.2067ZM39.4883 47.6533C40.3013 47.6533 40.9518 47.0009 40.9518 46.0624C40.9518 45.1243 40.3018 44.4719 39.4883 44.4719H38.6754V47.6537L39.4883 47.6533Z" fill="white"/>
<path d="M46.9948 43.2067H48.2953V48.918H46.9948V43.2067Z" fill="white"/>
<path d="M55.052 43.2067H56.9217L58.8726 48.918H57.45L57.0842 47.7758H54.889L54.5232 48.918H53.1006L55.052 43.2067ZM56.7183 46.6337L56.0679 44.594H55.9053L55.2553 46.6337H56.7183Z" fill="white"/>
<path d="M63.5989 43.2067H65.5907L66.7286 46.7558H66.8911L68.0291 43.2067H70.0209V48.918H68.7204V45.4095H68.5579L67.4199 48.918H66.2007L65.0627 45.4095H64.8998V48.918H63.5993V43.2067H63.5989Z" fill="white"/>
<path d="M74.5364 46.0624C74.5364 44.341 75.7639 43.1252 77.3003 43.1252C78.837 43.1252 80.0642 44.341 80.0642 46.0624C80.0642 47.7842 78.837 49 77.3003 49C75.7635 49 74.5364 47.7842 74.5364 46.0624ZM78.7637 46.0624C78.7637 45.0427 78.1132 44.3899 77.3003 44.3899C76.4873 44.3899 75.8368 45.0423 75.8368 46.0624C75.8368 47.0824 76.4873 47.7353 77.3003 47.7353C78.1132 47.7353 78.7637 47.0824 78.7637 46.0624Z" fill="white"/>
<path d="M86.1801 43.2067L87.9685 46.6332H88.131V43.2067H89.4315V48.918H87.8464L86.058 45.4915H85.895V48.918H84.5946V43.2067H86.1801Z" fill="white"/>
<path d="M95.0933 43.2067H97.2072C98.7435 43.2067 99.9711 44.4304 99.9711 46.0624C99.9711 47.6943 98.7435 48.9184 97.2072 48.9184H95.0933V43.2067ZM97.2072 47.6533C98.0201 47.6533 98.6702 47.0009 98.6702 46.0624C98.6702 45.1243 98.0201 44.4719 97.2072 44.4719H96.3938V47.6537L97.2072 47.6533Z" fill="white"/>
<path d="M106.013 47.0414C106.013 47.4981 106.379 47.8574 107.07 47.8574C107.761 47.8574 108.045 47.5722 108.045 47.2455C108.045 46.9599 107.851 46.7558 107.232 46.6332L106.338 46.4701C105.322 46.2823 104.834 45.7846 104.834 44.8792C104.834 43.9001 105.598 43.1252 106.988 43.1252C108.493 43.1252 109.305 43.9416 109.305 45.0833H108.005C108.005 44.6345 107.63 44.2673 106.988 44.2673C106.412 44.2673 106.135 44.5526 106.135 44.8792C106.135 45.1649 106.297 45.3116 106.826 45.4095L107.72 45.5726C108.858 45.7767 109.346 46.266 109.346 47.2455C109.346 48.2246 108.573 48.9996 107.069 48.9996C105.574 48.9996 104.712 48.1426 104.712 47.0414H106.013Z" fill="white"/>
<path d="M24.3767 4.19751L14.2794 0L4.1821 4.19751L0 14.3316L4.1821 24.4661L14.2794 28.6636L24.3767 24.4661L28.5588 14.3316L24.3767 4.19751ZM22.1376 17.6117L17.5343 22.232H11.024L6.42072 17.6117V11.0774L11.024 6.45716H17.5343L22.1376 11.0774V17.6117Z" fill="white"/>
<path fill-rule="evenodd" clip-rule="evenodd" d="M59.3606 2.22218V12.1473H47.9413V2.22218H43.11V26.4643H47.9413V16.5511H59.3606V26.4674H64.1918V2.22218H59.3606Z" fill="white"/>
<path d="M92.9504 10.6577L80.8785 2.2839V26.4709H85.7097V11.5297L92.95 16.552L92.9504 16.5515L92.9508 16.552L100.191 11.5297V26.4608H105.022V2.2839L92.9504 10.6577Z" fill="white"/>
<path fill-rule="evenodd" clip-rule="evenodd" d="M138.616 8.90548C136.43 11.1343 137.18 12.3126 136.425 12.3126C135.671 12.3126 136.425 11.1396 134.238 8.90901C132.05 6.67845 131.008 7.28105 131.008 6.67184C131.008 6.06262 132.045 6.67184 134.231 4.44084C136.425 2.20411 135.672 1.03108 136.425 1.03108C137.179 1.03108 136.425 2.20543 138.616 4.43819C140.807 6.67052 141.842 6.05028 141.842 6.67228C141.842 7.29384 140.809 6.66919 138.616 8.90548Z" fill="white"/>
<path d="M119.867 2.17854L116.45 5.60725L125.162 14.3505V26.4669H129.993V12.3417L119.867 2.17854Z" fill="white"/>
</svg>
